<?xml version="1.0" encoding="utf-8"?>
<!-- Generator: Adobe Illustrator 18.0.0, SVG Export Plug-In . SVG Version: 6.00 Build 0)  -->
<!DOCTYPE svg PUBLIC "-//W3C//DTD SVG 1.1//EN" "http://www.w3.org/Graphics/SVG/1.1/DTD/svg11.dtd">
<svg version="1.1" id="Layer_1" xmlns="http://www.w3.org/2000/svg" xmlns:xlink="http://www.w3.org/1999/xlink" x="0px" y="0px"
	 viewBox="0 0 512 512" enable-background="new 0 0 512 512" xml:space="preserve">
<g>
	<path fill="#FFFFFF" d="M467.3,168.1c-1.8,0-3.5,0.3-5.1,1l-2.3,1.1l-171.5,88.9l-3.9,2c0,0-0.1,0-0.1,0
		c-7.6,4.7-12.5,12.5-12.5,21.4v185.9c0,6.4,5.6,11.5,12.7,11.5c2.2,0,4.3-0.5,6.1-1.4c0.2-0.1,0.4-0.2,0.5-0.3L466,385.6l0.3-0.1
		c8.2-4.5,13.7-12.7,13.7-22.1V179.6C480,173.2,474.3,168.1,467.3,168.1z"/>
	<path fill="#FFFFFF" d="M454.3,118.5L272.6,36.8c0,0-10.7-4.8-16.6-4.8s-16.5,4.8-16.5,4.8L57.6,118.5c0,0-8,3.3-8,9.5
		c0,6.6,8.3,11.5,8.3,11.5l182.6,96.4l2.9,1.5c3.8,1.7,8.1,2.6,12.6,2.6c4.6,0,8.9-1,12.7-2.7l2.5-1.3l182.9-96.5
		c0,0,7.5-4,7.5-11.5C461.7,121.5,454.3,118.5,454.3,118.5z"/>
	<path fill="#FFFFFF" d="M227.5,261.2l-4-2L52,170.2l-2.3-1.1c-1.5-0.6-3.3-1-5.1-1c-7,0-12.7,5.1-12.7,11.5v183.8
		c0,9.4,5.5,17.6,13.7,22.1l0.2,0.1l174.7,92.7l0,0c1.9,1.1,4.2,1.7,6.6,1.7c7,0,12.7-5.2,12.7-11.5V282.6
		C240,273.7,235,265.8,227.5,261.2z"/>
</g>
</svg>
