<?xml version="1.0" encoding="utf-8"?>
<!-- Generator: Adobe Illustrator 18.0.0, SVG Export Plug-In . SVG Version: 6.00 Build 0)  -->
<!DOCTYPE svg PUBLIC "-//W3C//DTD SVG 1.1//EN" "http://www.w3.org/Graphics/SVG/1.1/DTD/svg11.dtd">
<svg version="1.1" id="Layer_1" xmlns="http://www.w3.org/2000/svg" xmlns:xlink="http://www.w3.org/1999/xlink" x="0px" y="0px"
	 viewBox="0 0 512 512" enable-background="new 0 0 512 512" xml:space="preserve">
<g>
	<path fill="#FFFFFF" d="M128,320c-26.5,0-48,21.5-48,48s21.5,48,48,48s48-21.5,48-48S154.5,320,128,320z"/>
	<path fill="#FFFFFF" d="M383.5,272h-255C75.2,272,32,315.2,32,368.5S75.2,464,128.5,464h255c53.3,0,96.5-42.2,96.5-95.5
		S436.8,272,383.5,272z M128,432c-35.3,0-64-28.7-64-64c0-35.3,28.7-64,64-64s64,28.7,64,64C192,403.3,163.3,432,128,432z"/>
	<path fill="#FFFFFF" d="M384,192c26.5,0,48-21.5,48-48s-21.5-48-48-48s-48,21.5-48,48S357.5,192,384,192z"/>
	<path fill="#FFFFFF" d="M128.5,240h255c53.3,0,96.5-42.2,96.5-95.5S436.8,48,383.5,48h-255C75.2,48,32,91.2,32,144.5
		S75.2,240,128.5,240z M384,80c35.3,0,64,28.7,64,64c0,35.3-28.7,64-64,64s-64-28.7-64-64C320,108.7,348.7,80,384,80z"/>
</g>
</svg>
