<?xml version="1.0" encoding="utf-8"?>
<!-- Generator: Adobe Illustrator 18.0.0, SVG Export Plug-In . SVG Version: 6.00 Build 0)  -->
<!DOCTYPE svg PUBLIC "-//W3C//DTD SVG 1.1//EN" "http://www.w3.org/Graphics/SVG/1.1/DTD/svg11.dtd">
<svg version="1.1" id="Layer_1" xmlns="http://www.w3.org/2000/svg" xmlns:xlink="http://www.w3.org/1999/xlink" x="0px" y="0px"
	 viewBox="0 0 512 512" enable-background="new 0 0 512 512" xml:space="preserve">
<g>
	<path fill="#FFFFFF" d="M328.2,64H183.8C170.7,64,160,74.7,160,87.9v336.3c0,13.1,10.7,23.8,23.8,23.8h144.3
		c13.1,0,23.8-10.7,23.8-23.8V87.9C352,74.7,341.3,64,328.2,64z M240,99.9c0-2.1,1.7-3.9,3.9-3.9h24.3c2.1,0,3.9,1.7,3.9,3.9v0.3
		c0,2.1-1.7,3.9-3.9,3.9h-24.3c-2.1,0-3.9-1.7-3.9-3.9L240,99.9L240,99.9z M228,96c2.2,0,4,1.8,4,4s-1.8,4-4,4s-4-1.8-4-4
		S225.8,96,228,96z M256,432.1c-8.9,0-16.1-7.2-16.1-16.1s7.2-16.1,16.1-16.1c8.9,0,16.1,7.2,16.1,16.1S264.8,432.1,256,432.1z
		 M336,384H176V128h160V384z"/>
</g>
</svg>
